<svg xmlns="http://www.w3.org/2000/svg" viewBox="0 0 264 264" width="264" height="264" role="img" aria-label="motdang.net"><rect width="264" height="264" fill="#fff"/><path d="M32,32h8v8h-8zM40,32h8v8h-8zM48,32h8v8h-8zM56,32h8v8h-8zM64,32h8v8h-8zM72,32h8v8h-8zM80,32h8v8h-8zM112,32h8v8h-8zM128,32h8v8h-8zM160,32h8v8h-8zM176,32h8v8h-8zM184,32h8v8h-8zM192,32h8v8h-8zM200,32h8v8h-8zM208,32h8v8h-8zM216,32h8v8h-8zM224,32h8v8h-8zM32,40h8v8h-8zM80,40h8v8h-8zM104,40h8v8h-8zM112,40h8v8h-8zM128,40h8v8h-8zM144,40h8v8h-8zM152,40h8v8h-8zM176,40h8v8h-8zM224,40h8v8h-8zM32,48h8v8h-8zM48,48h8v8h-8zM56,48h8v8h-8zM64,48h8v8h-8zM80,48h8v8h-8zM96,48h8v8h-8zM104,48h8v8h-8zM120,48h8v8h-8zM128,48h8v8h-8zM144,48h8v8h-8zM160,48h8v8h-8zM176,48h8v8h-8zM192,48h8v8h-8zM200,48h8v8h-8zM208,48h8v8h-8zM224,48h8v8h-8zM32,56h8v8h-8zM48,56h8v8h-8zM56,56h8v8h-8zM64,56h8v8h-8zM80,56h8v8h-8zM96,56h8v8h-8zM112,56h8v8h-8zM120,56h8v8h-8zM128,56h8v8h-8zM136,56h8v8h-8zM144,56h8v8h-8zM176,56h8v8h-8zM192,56h8v8h-8zM200,56h8v8h-8zM208,56h8v8h-8zM224,56h8v8h-8zM32,64h8v8h-8zM48,64h8v8h-8zM56,64h8v8h-8zM64,64h8v8h-8zM80,64h8v8h-8zM96,64h8v8h-8zM112,64h8v8h-8zM128,64h8v8h-8zM144,64h8v8h-8zM160,64h8v8h-8zM176,64h8v8h-8zM192,64h8v8h-8zM200,64h8v8h-8zM208,64h8v8h-8zM224,64h8v8h-8zM32,72h8v8h-8zM80,72h8v8h-8zM96,72h8v8h-8zM104,72h8v8h-8zM128,72h8v8h-8zM144,72h8v8h-8zM152,72h8v8h-8zM176,72h8v8h-8zM224,72h8v8h-8zM32,80h8v8h-8zM40,80h8v8h-8zM48,80h8v8h-8zM56,80h8v8h-8zM64,80h8v8h-8zM72,80h8v8h-8zM80,80h8v8h-8zM96,80h8v8h-8zM112,80h8v8h-8zM128,80h8v8h-8zM144,80h8v8h-8zM160,80h8v8h-8zM176,80h8v8h-8zM184,80h8v8h-8zM192,80h8v8h-8zM200,80h8v8h-8zM208,80h8v8h-8zM216,80h8v8h-8zM224,80h8v8h-8zM96,88h8v8h-8zM104,88h8v8h-8zM112,88h8v8h-8zM128,88h8v8h-8zM160,88h8v8h-8zM32,96h8v8h-8zM48,96h8v8h-8zM56,96h8v8h-8zM64,96h8v8h-8zM72,96h8v8h-8zM80,96h8v8h-8zM120,96h8v8h-8zM176,96h8v8h-8zM184,96h8v8h-8zM192,96h8v8h-8zM200,96h8v8h-8zM208,96h8v8h-8zM72,104h8v8h-8zM88,104h8v8h-8zM104,104h8v8h-8zM136,104h8v8h-8zM184,104h8v8h-8zM216,104h8v8h-8zM32,112h8v8h-8zM40,112h8v8h-8zM56,112h8v8h-8zM72,112h8v8h-8zM80,112h8v8h-8zM88,112h8v8h-8zM136,112h8v8h-8zM144,112h8v8h-8zM152,112h8v8h-8zM160,112h8v8h-8zM168,112h8v8h-8zM184,112h8v8h-8zM200,112h8v8h-8zM216,112h8v8h-8zM224,112h8v8h-8zM32,120h8v8h-8zM40,120h8v8h-8zM56,120h8v8h-8zM64,120h8v8h-8zM72,120h8v8h-8zM88,120h8v8h-8zM96,120h8v8h-8zM104,120h8v8h-8zM128,120h8v8h-8zM136,120h8v8h-8zM160,120h8v8h-8zM168,120h8v8h-8zM184,120h8v8h-8zM192,120h8v8h-8zM224,120h8v8h-8zM32,128h8v8h-8zM56,128h8v8h-8zM72,128h8v8h-8zM80,128h8v8h-8zM88,128h8v8h-8zM104,128h8v8h-8zM112,128h8v8h-8zM120,128h8v8h-8zM128,128h8v8h-8zM144,128h8v8h-8zM152,128h8v8h-8zM168,128h8v8h-8zM176,128h8v8h-8zM192,128h8v8h-8zM208,128h8v8h-8zM216,128h8v8h-8zM224,128h8v8h-8zM32,136h8v8h-8zM48,136h8v8h-8zM56,136h8v8h-8zM64,136h8v8h-8zM72,136h8v8h-8zM104,136h8v8h-8zM160,136h8v8h-8zM168,136h8v8h-8zM184,136h8v8h-8zM200,136h8v8h-8zM216,136h8v8h-8zM32,144h8v8h-8zM56,144h8v8h-8zM80,144h8v8h-8zM88,144h8v8h-8zM104,144h8v8h-8zM120,144h8v8h-8zM128,144h8v8h-8zM152,144h8v8h-8zM168,144h8v8h-8zM176,144h8v8h-8zM184,144h8v8h-8zM192,144h8v8h-8zM200,144h8v8h-8zM216,144h8v8h-8zM224,144h8v8h-8zM32,152h8v8h-8zM48,152h8v8h-8zM64,152h8v8h-8zM96,152h8v8h-8zM104,152h8v8h-8zM112,152h8v8h-8zM120,152h8v8h-8zM144,152h8v8h-8zM160,152h8v8h-8zM176,152h8v8h-8zM184,152h8v8h-8zM192,152h8v8h-8zM224,152h8v8h-8zM32,160h8v8h-8zM56,160h8v8h-8zM80,160h8v8h-8zM88,160h8v8h-8zM96,160h8v8h-8zM104,160h8v8h-8zM112,160h8v8h-8zM120,160h8v8h-8zM160,160h8v8h-8zM168,160h8v8h-8zM176,160h8v8h-8zM184,160h8v8h-8zM192,160h8v8h-8zM208,160h8v8h-8zM96,168h8v8h-8zM104,168h8v8h-8zM128,168h8v8h-8zM136,168h8v8h-8zM144,168h8v8h-8zM152,168h8v8h-8zM160,168h8v8h-8zM192,168h8v8h-8zM200,168h8v8h-8zM32,176h8v8h-8zM40,176h8v8h-8zM48,176h8v8h-8zM56,176h8v8h-8zM64,176h8v8h-8zM72,176h8v8h-8zM80,176h8v8h-8zM104,176h8v8h-8zM112,176h8v8h-8zM136,176h8v8h-8zM144,176h8v8h-8zM160,176h8v8h-8zM176,176h8v8h-8zM192,176h8v8h-8zM208,176h8v8h-8zM216,176h8v8h-8zM224,176h8v8h-8zM32,184h8v8h-8zM80,184h8v8h-8zM96,184h8v8h-8zM104,184h8v8h-8zM112,184h8v8h-8zM128,184h8v8h-8zM136,184h8v8h-8zM160,184h8v8h-8zM192,184h8v8h-8zM200,184h8v8h-8zM216,184h8v8h-8zM32,192h8v8h-8zM48,192h8v8h-8zM56,192h8v8h-8zM64,192h8v8h-8zM80,192h8v8h-8zM96,192h8v8h-8zM104,192h8v8h-8zM128,192h8v8h-8zM144,192h8v8h-8zM152,192h8v8h-8zM160,192h8v8h-8zM168,192h8v8h-8zM176,192h8v8h-8zM184,192h8v8h-8zM192,192h8v8h-8zM208,192h8v8h-8zM224,192h8v8h-8zM32,200h8v8h-8zM48,200h8v8h-8zM56,200h8v8h-8zM64,200h8v8h-8zM80,200h8v8h-8zM96,200h8v8h-8zM104,200h8v8h-8zM112,200h8v8h-8zM168,200h8v8h-8zM176,200h8v8h-8zM192,200h8v8h-8zM200,200h8v8h-8zM208,200h8v8h-8zM216,200h8v8h-8zM224,200h8v8h-8zM32,208h8v8h-8zM48,208h8v8h-8zM56,208h8v8h-8zM64,208h8v8h-8zM80,208h8v8h-8zM96,208h8v8h-8zM104,208h8v8h-8zM120,208h8v8h-8zM128,208h8v8h-8zM152,208h8v8h-8zM200,208h8v8h-8zM208,208h8v8h-8zM224,208h8v8h-8zM32,216h8v8h-8zM80,216h8v8h-8zM104,216h8v8h-8zM120,216h8v8h-8zM144,216h8v8h-8zM152,216h8v8h-8zM160,216h8v8h-8zM168,216h8v8h-8zM176,216h8v8h-8zM184,216h8v8h-8zM192,216h8v8h-8zM200,216h8v8h-8zM224,216h8v8h-8zM32,224h8v8h-8zM40,224h8v8h-8zM48,224h8v8h-8zM56,224h8v8h-8zM64,224h8v8h-8zM72,224h8v8h-8zM80,224h8v8h-8zM96,224h8v8h-8zM112,224h8v8h-8zM120,224h8v8h-8zM176,224h8v8h-8zM184,224h8v8h-8zM192,224h8v8h-8zM200,224h8v8h-8zM208,224h8v8h-8zM216,224h8v8h-8zM224,224h8v8h-8z" fill="#111"/></svg>